<?xml version="1.0" encoding="UTF-8"?><svg xmlns="http://www.w3.org/2000/svg" xmlns:xlink="http://www.w3.org/1999/xlink" height="226.4" preserveAspectRatio="xMidYMid meet" version="1.0" viewBox="0.0 -13.5 176.5 226.4" width="176.5" zoomAndPan="magnify"><g clip-rule="evenodd" fill-rule="evenodd"><g id="change1_1"><path d="M52.9863,57.2457c3.666,0,6.6396,3.792,6.6396,8.4707 s-2.9736,8.4707-6.6396,8.4707c-3.667,0-6.6387-3.792-6.6387-8.4707S49.3193,57.2457,52.9863,57.2457L52.9863,57.2457z M123.4707,57.2457c3.6669,0,6.6396,3.792,6.6396,8.4707s-2.9727,8.4707-6.6396,8.4707c-3.6661,0-6.6387-3.792-6.6387-8.4707 S119.8046,57.2457,123.4707,57.2457z" fill="#EDC19C"/></g><g id="change2_1"><path d="M64.3857,101.8951h23.8428h23.8437 c0,12.5215,2.375,21.7334,5.5879,26.3096c-6.5078,8.3926-17.7031,11.0439-29.4316,11.6855 c-11.7276-0.6416-22.9229-3.2929-29.4317-11.6855C62.0107,123.6285,64.3857,114.4166,64.3857,101.8951z" fill="#DEB088"/></g><g id="change3_1"><path d="M0,212.9908l1.1904-39.8457 c1.1719-39.2207,27.4717-38.3281,57.6064-44.9404c19.6231,5.4795,39.2442,5.2217,58.8633,0 c30.1348,6.6123,56.4346,5.7197,57.6065,44.9404l1.1904,39.8457H88.2285H0z" fill="#FFF"/></g><g id="change1_2"><path d="M88.2285,117.4615c-16.4248,0-37.8506-26.3486-37.8506-55.0859 c0-25.3438,7.2695-46.3164,37.8506-45.6299c23.0215,0.5176,37.8506,20.2861,37.8506,45.6299 C126.0791,91.1129,104.6533,117.4615,88.2285,117.4615z" fill="#EDC19C"/></g><g id="change4_1"><path d="M87.805 132.216H88.641V212.99H87.805z" fill="#E6E6E6"/></g><g id="change5_1"><path d="M0,212.9908l1.1904-39.8457 c1.1719-39.2207,27.4717-38.3281,57.6064-44.9404l22.8604,84.7861H0z" fill="#1A1A1A"/></g><g id="change4_2"><path d="M63.0068,117.0465l25.0576,15.1641l-12.4531,13.9013 c-7.7832-5.4941-15.5684-10.9883-23.3516-16.4834C56.874,125.4147,59.4531,122.8541,63.0068,117.0465z" fill="#E6E6E6"/></g><g id="change4_3"><path d="M113.4511,117.0465l-25.0586,15.1641l12.4541,13.9013 c7.7832-5.4941,15.5674-10.9883,23.3516-16.4834C119.583,125.4147,117.0039,122.8541,113.4511,117.0465z" fill="#E6E6E6"/></g><g id="change5_2"><path d="M176.457,212.9908l-1.1904-39.8457 c-1.1719-39.2207-27.4717-38.3281-57.6065-44.9404l-22.8603,84.7861H176.457z" fill="#1A1A1A"/></g><g id="change5_3"><path d="M50.4599,57.8805c-9.9551-18.5889-0.2773-54.669,22.3526-52.3701 c23.2851-18.9629,73.4218,14.0879,52.9189,52.3701c-2.5225-0.0069-1.7725,12.1631-4.7412,12.2763 c2.167-24.7207-4.4883-22.9287-7.4756-34.5117c-28.2539,10.4004-37.5049,0.6524-50.8369,3.628 c-4.4824,4.1152-9.6436,6.163-7.4766,30.8837C52.2334,70.0436,52.9824,57.8736,50.4599,57.8805z" fill="#1A1A1A"/></g><g fill="#1A1A1A" id="change5_4"><path d="M74.0517,137.4889c2.2529,4.6152,4.5059,9.2285,6.7598,13.8437 c0.5136,1.0528,1.8535,1.6612,3.2578,1.4766c2.8984-0.3799,5.6865-0.4043,8.3564-0.0469 c1.4258,0.1895,2.7881-0.4385,3.2871-1.5156c2.1192-4.582,4.2403-9.166,6.3594-13.749c0.5371-1.1612-0.1367-2.4483-1.5527-2.9639 c-8.3213-3.0264-16.6426-3.1553-24.9639-0.0361C74.1416,135.0279,73.4863,136.3297,74.0517,137.4889z" fill="inherit"/><path d="M85.7988 151.3941L88.2285 152.5094 90.6582 151.3941 92.7656 152.8287 100.8945 212.9908 88.2285 212.9908 75.5625 212.9908 83.6914 152.8287z" fill="inherit"/></g><g id="change3_2"><path d="M63.0068,117.0465l25.0576,15.1641L75.1093,142.983 l-22.8496-13.3545C56.874,125.4147,59.4531,122.8541,63.0068,117.0465z" fill="#FFF"/></g><g id="change3_3"><path d="M113.4511,117.0465l-25.0586,15.1641l12.9561,10.7724 l22.8496-13.3545C119.583,125.4147,117.0039,122.8541,113.4511,117.0465z" fill="#FFF"/></g><g id="change6_1"><path d="M58.1621,123.7858l23.4951,89.205h-5.6621l-27.9004-60.3203 l9.6875-5.5107l-13.0791-4.0987l-1.5928-11.7539C46.6376,129.6393,55.0087,128.0777,58.1621,123.7858z" fill="#2D2D2D"/></g><g id="change6_2"><path d="M118.2959,123.7858l-23.4961,89.205h5.663l27.8995-60.3203 l-9.6866-5.5107l13.0791-4.0987l1.5918-11.7539C129.8193,129.6393,121.4492,128.0777,118.2959,123.7858z" fill="#2D2D2D"/></g></g></svg>